<svg id="Слой_1" data-name="Слой 1" xmlns="http://www.w3.org/2000/svg" viewBox="0 0 48.29 53.64"><defs><style>.cls-1{fill:#676767;}</style></defs><g id="home-outline"><path class="cls-1" d="M166.42,126.09,145.74,105a2.69,2.69,0,0,0-3.8,0h0l-20.69,21.17a5.35,5.35,0,0,0-1.55,3.84v22.48a5.36,5.36,0,0,0,5.07,5.36H162.9a5.36,5.36,0,0,0,5.07-5.36V130A5.54,5.54,0,0,0,166.42,126.09Zm-27.95,26.35v-16.1H149.2v16.1Zm24.14,0h-8.05V133.66a2.68,2.68,0,0,0-2.68-2.68h-16.1a2.68,2.68,0,0,0-2.68,2.68v18.78h-8V129.85l18.78-19.18L162.61,130Z" transform="translate(-119.69 -104.16)"/></g></svg>